<svg xmlns="http://www.w3.org/2000/svg" xmlns:xlink="http://www.w3.org/1999/xlink" viewBox="0 0 100 100"><path fill="#FFEE11" d="M43.176,70.379c-0.03,0.405-0.075,0.914-0.136,1.511c-3.044-0.609-4.383-1.525-4.969-2.171
c-0.516-0.57-0.72-1.208-0.641-2.01c0.161-1.629,0.871-3.016,1.9-3.712c0.36-0.243,0.723-0.37,1.05-0.37
c0.112,0,0.22,0.015,0.323,0.045C43.466,64.48,43.248,69.401,43.176,70.379z M53.53,75.54c-0.811,0.031-1.671,0.048-2.582,0.048
c-1.925,0-3.675-0.075-5.254-0.225c-0.713,5.88-2.117,15.944-4.04,22.901c5.817,0.676,11.757,0.648,17.824-0.201
C56.299,92.033,54.35,82.828,53.53,75.54z M47.316,1.34C26.472,2.738,11.142,23.485,13.774,44.209
c0.792,6.235,2.988,11.964,6.581,16.772C26.797,69.604,30,80.181,30,90.945v1.207c0,2.815,2.418,4.532,5.176,5.096
c1.111,0.228,2.268,0.427,3.388,0.605c1.779-6.368,3.344-16.571,4.114-22.905c-3.245-0.612-5.513-1.665-6.882-3.176
c-1.09-1.203-1.576-2.712-1.413-4.362c0.249-2.525,1.459-4.748,3.234-5.947c1.251-0.846,2.651-1.106,3.945-0.726
c3.303,0.965,5.047,4.653,4.664,9.866c-0.002,0.04-0.063,0.661-0.179,1.716c1.392,0.133,3.013,0.211,4.902,0.211
c0.826,0,1.59-0.013,2.296-0.04c-0.279-3.761-0.199-6.662,0.221-7.766c0.541-1.42,1.677-2.527,3.2-3.121
c1.684-0.658,3.74-0.635,5.122,0.055c3.033,1.517,3.872,5.45,3.131,8.551c-0.691,2.91-3.206,4.508-8.351,5.104
c0.877,7.288,2.917,16.856,6.094,22.224c0.525-0.098,1.592-0.177,2.119-0.288C67.835,96.606,71,94.694,71,91.572v-1.665
c0-10.781,3.064-21.148,9.204-30.01c4.072-5.877,6.413-13.012,6.413-20.707C86.617,18.254,68.548-0.085,47.316,1.34z M61.943,69.5
c0.455-1.908,0.009-4.341-1.525-5.107c-0.239-0.119-0.664-0.214-1.171-0.214c-0.451,0-0.968,0.075-1.472,0.272
c-0.729,0.284-1.217,0.742-1.453,1.36c-0.312,0.82-0.334,3.239-0.067,6.458C60.789,71.738,61.707,70.494,61.943,69.5z"/></svg>
